<svg width="1200" height="720" viewBox="0 0 1200 720" fill="none" xmlns="http://www.w3.org/2000/svg">
<g clip-path="url(#clip0_4368_321039)">
<rect width="1200" height="720" fill="white"/>
<path d="M752.5 747.161C779.128 665.229 878.074 616.801 960.785 633.914C976.73 637.213 997.348 647.592 1010.88 656.963C1014.38 659.385 1014.02 653.808 1014.36 651.596C1015.54 643.932 1018.8 636.95 1023.83 630.967C1043.18 607.931 1091.24 623.262 1113.5 631.178C1148.74 643.706 1181.64 661.762 1216.22 675.908C1222.72 678.567 1220.23 670.723 1220.54 666.33C1221.9 646.552 1245.7 632.2 1262.53 626.336C1282.04 619.536 1303.65 614.336 1324.42 614.548C1331.52 614.621 1337.64 616.69 1344.2 619.179C1346.81 620.169 1352.83 624.337 1355.68 623.705C1358.18 623.149 1351.69 609.877 1351.15 608.128C1348.14 598.352 1351.31 593.549 1358.73 586.131C1377.39 567.472 1396.57 567.187 1421.98 567.187C1438.28 567.187 1455.56 565.4 1470.5 572.87" stroke="#FF8577" stroke-width="48" stroke-linecap="round" stroke-linejoin="round"/>
<path d="M752.5 747.161C779.128 665.229 878.074 616.801 960.785 633.914C976.73 637.213 997.348 647.592 1010.88 656.963C1014.38 659.385 1014.02 653.808 1014.36 651.596C1015.54 643.932 1018.8 636.95 1023.83 630.967C1043.18 607.931 1091.24 623.262 1113.5 631.178C1148.74 643.706 1181.64 661.762 1216.22 675.908C1222.72 678.567 1220.23 670.723 1220.54 666.33C1221.9 646.552 1245.7 632.2 1262.53 626.336C1282.04 619.536 1303.65 614.336 1324.42 614.548C1331.52 614.621 1337.64 616.69 1344.2 619.179C1346.81 620.169 1352.83 624.337 1355.68 623.705C1358.18 623.149 1351.69 609.877 1351.15 608.128C1348.14 598.352 1351.31 593.549 1358.73 586.131C1377.39 567.472 1396.57 567.187 1421.98 567.187C1438.28 567.187 1455.56 565.4 1470.5 572.87" stroke="black" stroke-width="4" stroke-linecap="round" stroke-linejoin="round"/>
<circle cx="871.5" cy="639.5" r="8" fill="white" stroke="black" stroke-width="4"/>
<circle cx="1011.75" cy="657" r="8" fill="white" stroke="black" stroke-width="4"/>
<circle cx="1110.75" cy="630.75" r="8" fill="white" stroke="black" stroke-width="4"/>
<path d="M-291.75 113.563C-199.875 113.563 -108 113.563 -16.1252 113.563C-9.3089 113.563 -8.68305 113.191 -8.81422 120.143C-8.93425 126.504 -10.4592 132.674 -10.4592 139.06C-10.4592 141.552 -9.10298 139.362 -8.08312 138.146C-0.502985 129.108 7.80413 121.119 16.9571 113.654C38.7423 95.8875 63.1883 80.2803 90.2499 71.9814C98.3288 69.5039 112.409 66.5736 120.956 69.4226C128.802 72.0377 124.429 108.186 124.429 116.304C124.429 118.739 122.826 129.717 124.794 131.292C126.358 132.543 161.816 107.274 164.457 105.703C185.159 93.3938 258.032 51.1721 261.784 99.946C262.572 110.189 262.607 120.39 262.607 130.652C262.607 140.98 303.425 116.398 304.736 115.756C334.454 101.21 361.524 90.1222 394.662 88.9795C401.183 88.7546 407.73 88.4614 413.944 90.5331" stroke="#699BF7" stroke-width="48" stroke-linecap="round" stroke-linejoin="round"/>
<path d="M-291.75 113.563C-262.342 113.563 -10.3392 107.292 -10.4592 113.654C-10.5792 120.016 -10.4592 132.674 -10.4592 139.06C-10.4592 141.552 -9.10298 139.362 -8.08312 138.146C-0.502985 129.108 7.80413 121.119 16.9571 113.654C38.7423 95.8875 63.1883 80.2803 90.2499 71.9814C98.3288 69.5039 112.409 66.5736 120.956 69.4226C128.802 72.0377 124.429 108.186 124.429 116.304C124.429 118.739 122.826 129.717 124.794 131.292C126.358 132.543 161.816 107.274 164.457 105.703C185.159 93.3938 258.032 51.1721 261.784 99.946C262.572 110.189 262.607 120.39 262.607 130.652C262.607 140.98 303.425 116.398 304.736 115.756C334.454 101.21 361.524 90.1222 394.662 88.9795C401.183 88.7546 407.73 88.4614 413.944 90.5331" stroke="black" stroke-width="4" stroke-linecap="round" stroke-linejoin="round"/>
<circle cx="413.75" cy="90" r="8" fill="white" stroke="black" stroke-width="4"/>
<circle cx="265.25" cy="129.75" r="8" fill="white" stroke="black" stroke-width="4"/>
<circle cx="224.75" cy="79.25" r="8" fill="white" stroke="black" stroke-width="4"/>
<circle cx="123.5" cy="133.5" r="8" fill="white" stroke="black" stroke-width="4"/>
<circle cx="117.5" cy="68.25" r="8" fill="white" stroke="black" stroke-width="4"/>
<rect x="267.25" y="570.25" width="132" height="58.5" fill="#5551FF"/>
<rect x="267.25" y="570.25" width="132" height="58.5" stroke="black" stroke-width="4"/>
<path fill-rule="evenodd" clip-rule="evenodd" d="M390.828 548.011L428.5 525.75L419.89 570.521L410.875 551.141L390.828 548.011Z" fill="#5551FF" stroke="black" stroke-width="4" stroke-linecap="square"/>
<rect x="549" y="52.75" width="132.25" height="58.5" fill="#F24E1E"/>
<rect x="549" y="52.75" width="132.25" height="58.5" stroke="black" stroke-width="4"/>
<path fill-rule="evenodd" clip-rule="evenodd" d="M556.422 131.989L518.75 154.25L527.36 109.479L536.375 128.859L556.422 131.989Z" fill="#F24E1E" stroke="black" stroke-width="4" stroke-linecap="square"/>
<rect x="72" y="292" width="859" height="184" fill="black"/>
<rect x="1016.5" y="375.5" width="132.25" height="58.5" fill="#A259FF"/>
<rect x="1016.5" y="375.5" width="132.25" height="58.5" stroke="black" stroke-width="4"/>
<path fill-rule="evenodd" clip-rule="evenodd" d="M1021.42 353.261L983.75 331L992.36 375.771L1001.38 356.391L1021.42 353.261Z" fill="#A259FF" stroke="black" stroke-width="4" stroke-linecap="square"/>
<rect x="67" y="273" width="898" height="174" fill="#FFC700"/>
<path d="M161.734 334.68C161.734 346.208 161.558 357.912 161.206 369.792C160.854 381.672 160.326 393.068 159.622 403.98C157.862 404.508 155.354 404.948 152.098 405.3C148.93 405.74 145.938 405.96 143.122 405.96C143.21 388.096 142.946 371.552 142.33 356.328C141.714 341.104 140.746 327.288 139.426 314.88C141.098 313.824 142.99 313.032 145.102 312.504C147.302 311.888 149.59 311.58 151.966 311.58C153.726 311.58 155.31 311.668 156.718 311.844C158.126 312.02 159.622 312.284 161.206 312.636C161.382 315.716 161.514 319.06 161.602 322.668C161.69 326.188 161.734 330.192 161.734 334.68ZM192.093 385.236C192.093 388.052 192.137 391.352 192.225 395.136C192.401 398.832 192.577 402.132 192.753 405.036C190.817 405.652 188.265 406.136 185.097 406.488C182.017 406.928 179.113 407.148 176.385 407.148C175.417 397.996 174.493 385.94 173.613 370.98C172.821 356.02 172.425 343.392 172.425 333.096C174.009 332.304 176.121 331.688 178.761 331.248C181.489 330.72 184.261 330.456 187.077 330.456C188.309 330.456 189.585 330.544 190.905 330.72C192.225 330.808 193.633 330.984 195.129 331.248C194.953 332.744 194.733 334.548 194.469 336.66C194.293 338.772 194.117 341.192 193.941 343.92C196.581 339.696 199.529 336.528 202.785 334.416C206.041 332.304 209.605 331.248 213.477 331.248C219.373 331.248 223.729 333.404 226.545 337.716C229.449 341.94 230.901 348.364 230.901 356.988C230.901 363.764 230.329 371.552 229.185 380.352C228.129 389.064 226.985 395.84 225.753 400.68C223.113 400.592 220.165 400.372 216.909 400.02C213.741 399.668 210.353 399.14 206.745 398.436C208.241 390.252 209.385 382.64 210.177 375.6C210.969 368.56 211.365 362.488 211.365 357.384C211.365 353.512 210.881 350.74 209.913 349.068C208.945 347.396 207.405 346.56 205.293 346.56C203.005 346.56 200.761 347.836 198.561 350.388C196.361 352.852 194.469 356.284 192.885 360.684C192.621 364.732 192.401 368.912 192.225 373.224C192.137 377.448 192.093 381.452 192.093 385.236ZM262.482 353.292C262.922 361.124 263.846 369.616 265.254 378.768C266.75 387.92 268.246 395.488 269.742 401.472C267.014 402.44 263.714 403.232 259.842 403.848C256.058 404.464 252.538 404.772 249.282 404.772C248.138 399.58 246.994 391.528 245.85 380.616C244.794 369.704 244.222 359.892 244.134 351.18C242.198 350.828 240.438 350.476 238.854 350.124C237.358 349.772 236.126 349.376 235.158 348.936C235.158 347.44 235.378 345.636 235.818 343.524C236.258 341.412 236.742 340.092 237.27 339.564C238.15 339.652 239.162 339.784 240.306 339.96C241.538 340.048 242.946 340.18 244.53 340.356C245.41 329.092 247.962 320.556 252.186 314.748C256.41 308.94 262.218 306.036 269.61 306.036C275.33 306.036 279.862 307.708 283.206 311.052C286.55 314.308 288.222 318.62 288.222 323.988C288.222 325.308 288.09 326.628 287.826 327.948C287.562 329.18 287.21 330.28 286.77 331.248C284.658 331.248 282.414 331.072 280.038 330.72C277.662 330.368 275.11 329.796 272.382 329.004C272.646 328.212 272.866 327.376 273.042 326.496C273.218 325.528 273.306 324.56 273.306 323.592C273.306 321.656 272.954 320.204 272.25 319.236C271.634 318.18 270.666 317.652 269.346 317.652C267.058 317.652 265.298 319.676 264.066 323.724C262.922 327.684 262.306 333.536 262.218 341.28C263.362 341.368 264.55 341.412 265.782 341.412C267.102 341.412 269.038 341.412 271.59 341.412C275.022 341.412 277.75 341.368 279.774 341.28C281.886 341.104 283.602 340.884 284.922 340.62C284.922 342.38 284.79 344.448 284.526 346.824C284.262 349.112 283.954 351.048 283.602 352.632C282.458 352.984 281.006 353.248 279.246 353.424C277.574 353.512 275.374 353.556 272.646 353.556C271.414 353.556 270.05 353.556 268.554 353.556C267.146 353.468 265.122 353.38 262.482 353.292ZM304.022 303C306.134 303.088 308.07 303.308 309.83 303.66C311.59 304.012 313.042 304.496 314.186 305.112C313.394 306.96 312.514 309.468 311.546 312.636C310.578 315.804 309.83 318.796 309.302 321.612C306.838 321.964 304.242 322.228 301.514 322.404C298.786 322.492 295.838 322.492 292.67 322.404C292.23 320.996 291.878 319.588 291.614 318.18C291.438 316.772 291.35 315.364 291.35 313.956C291.35 312.372 291.482 310.832 291.746 309.336C292.01 307.84 292.362 306.52 292.802 305.376C294.474 304.584 296.19 304.012 297.95 303.66C299.798 303.22 301.822 303 304.022 303ZM288.974 335.868C290.822 334.812 292.89 334.02 295.178 333.492C297.554 332.876 300.062 332.568 302.702 332.568C303.934 332.568 305.166 332.656 306.398 332.832C307.718 332.92 308.994 333.096 310.226 333.36C308.378 340.4 306.882 350.168 305.738 362.664C304.594 375.16 304.022 388.052 304.022 401.34C302.614 401.956 300.854 402.44 298.742 402.792C296.718 403.232 294.606 403.452 292.406 403.452C291.438 403.452 290.558 403.408 289.766 403.32C289.062 403.232 288.402 403.144 287.786 403.056C286.378 391 285.762 379.12 285.938 367.416C286.202 355.712 287.214 345.196 288.974 335.868ZM336.19 385.236C336.19 388.052 336.234 391.352 336.322 395.136C336.498 398.832 336.674 402.132 336.85 405.036C334.914 405.652 332.362 406.136 329.194 406.488C326.114 406.928 323.21 407.148 320.482 407.148C319.514 397.996 318.59 385.94 317.71 370.98C316.918 356.02 316.522 343.392 316.522 333.096C318.106 332.304 320.218 331.688 322.858 331.248C325.586 330.72 328.358 330.456 331.174 330.456C332.406 330.456 333.682 330.544 335.002 330.72C336.322 330.808 337.73 330.984 339.226 331.248C339.05 332.744 338.83 334.548 338.566 336.66C338.39 338.772 338.214 341.192 338.038 343.92C340.678 339.696 343.626 336.528 346.882 334.416C350.138 332.304 353.702 331.248 357.574 331.248C363.47 331.248 367.826 333.404 370.642 337.716C373.546 341.94 374.998 348.364 374.998 356.988C374.998 363.764 374.426 371.552 373.282 380.352C372.226 389.064 371.082 395.84 369.85 400.68C367.21 400.592 364.262 400.372 361.006 400.02C357.838 399.668 354.45 399.14 350.842 398.436C352.338 390.252 353.482 382.64 354.274 375.6C355.066 368.56 355.462 362.488 355.462 357.384C355.462 353.512 354.978 350.74 354.01 349.068C353.042 347.396 351.502 346.56 349.39 346.56C347.102 346.56 344.858 347.836 342.658 350.388C340.458 352.852 338.566 356.284 336.982 360.684C336.718 364.732 336.498 368.912 336.322 373.224C336.234 377.448 336.19 381.452 336.19 385.236ZM402.192 303C404.304 303.088 406.24 303.308 408 303.66C409.76 304.012 411.212 304.496 412.356 305.112C411.564 306.96 410.684 309.468 409.716 312.636C408.748 315.804 408 318.796 407.472 321.612C405.008 321.964 402.412 322.228 399.684 322.404C396.956 322.492 394.008 322.492 390.84 322.404C390.4 320.996 390.048 319.588 389.784 318.18C389.608 316.772 389.52 315.364 389.52 313.956C389.52 312.372 389.652 310.832 389.916 309.336C390.18 307.84 390.532 306.52 390.972 305.376C392.644 304.584 394.36 304.012 396.12 303.66C397.968 303.22 399.992 303 402.192 303ZM387.144 335.868C388.992 334.812 391.06 334.02 393.348 333.492C395.724 332.876 398.232 332.568 400.872 332.568C402.104 332.568 403.336 332.656 404.568 332.832C405.888 332.92 407.164 333.096 408.396 333.36C406.548 340.4 405.052 350.168 403.908 362.664C402.764 375.16 402.192 388.052 402.192 401.34C400.784 401.956 399.024 402.44 396.912 402.792C394.888 403.232 392.776 403.452 390.576 403.452C389.608 403.452 388.728 403.408 387.936 403.32C387.232 403.232 386.572 403.144 385.956 403.056C384.548 391 383.932 379.12 384.108 367.416C384.372 355.712 385.384 345.196 387.144 335.868ZM448.333 372.828C450.709 373.004 453.085 373.576 455.461 374.544C457.925 375.424 460.081 376.568 461.929 377.976C461.753 384.928 459.949 390.516 456.517 394.74C453.085 398.964 448.333 401.076 442.261 401.076C434.869 401.076 429.105 397.908 424.969 391.572C420.921 385.148 418.897 375.952 418.897 363.984C418.897 360.112 418.941 356.46 419.029 353.028C419.205 349.596 419.469 346.296 419.821 343.128C418.149 342.952 416.477 342.732 414.805 342.468C413.221 342.116 411.725 341.72 410.317 341.28C410.405 339.08 410.669 337.012 411.109 335.076C411.549 333.052 412.121 331.468 412.825 330.324C413.881 330.676 415.113 330.984 416.521 331.248C418.017 331.512 419.601 331.732 421.273 331.908C421.713 328.916 422.241 326.012 422.857 323.196C423.473 320.38 424.133 317.652 424.837 315.012C428.533 315.012 432.229 315.276 435.925 315.804C439.621 316.244 442.789 316.904 445.429 317.784C444.813 319.896 444.153 322.316 443.449 325.044C442.833 327.684 442.261 330.456 441.733 333.36C445.693 333.448 449.301 333.448 452.557 333.36C455.901 333.184 458.893 332.964 461.533 332.7C461.533 334.196 461.357 335.912 461.005 337.848C460.653 339.784 460.169 341.676 459.553 343.524C457.001 343.964 454.009 344.272 450.577 344.448C447.233 344.624 443.669 344.668 439.885 344.58C439.357 348.716 438.961 352.632 438.697 356.328C438.433 359.936 438.301 363.324 438.301 366.492C438.301 374.324 438.741 380.088 439.621 383.784C440.501 387.48 441.821 389.328 443.581 389.328C445.077 389.328 446.221 387.964 447.013 385.236C447.805 382.42 448.245 378.284 448.333 372.828ZM486.858 358.176C488.618 358.704 490.378 359.1 492.138 359.364C493.986 359.628 495.702 359.76 497.286 359.76C498.254 359.76 499.222 359.716 500.19 359.628C501.158 359.54 501.818 359.452 502.17 359.364C502.786 357.076 503.226 354.964 503.49 353.028C503.842 351.004 504.018 349.2 504.018 347.616C504.018 344.976 503.622 343.04 502.83 341.808C502.038 340.576 500.762 339.96 499.002 339.96C496.538 339.96 494.206 341.632 492.006 344.976C489.806 348.232 488.09 352.632 486.858 358.176ZM508.242 377.844C510.794 378.284 513.39 379.208 516.03 380.616C518.67 382.024 520.87 383.608 522.63 385.368C520.958 390.296 517.262 394.696 511.542 398.568C505.822 402.352 499.31 404.244 492.006 404.244C483.646 404.244 477.134 401.56 472.47 396.192C467.806 390.736 465.474 383.388 465.474 374.148C465.474 362.444 468.95 352.06 475.902 342.996C482.942 333.844 491.126 329.268 500.454 329.268C506.966 329.268 512.114 331.072 515.898 334.68C519.77 338.2 521.706 342.952 521.706 348.936C521.706 351.752 521.398 354.788 520.782 358.044C520.254 361.3 519.506 364.248 518.538 366.888C516.25 367.944 513.434 368.736 510.09 369.264C506.746 369.704 502.61 369.924 497.682 369.924C495.658 369.924 493.59 369.792 491.478 369.528C489.454 369.264 487.386 368.868 485.274 368.34C485.186 369.748 485.098 370.804 485.01 371.508C485.01 372.212 485.01 372.872 485.01 373.488C485.01 379.472 485.89 384.18 487.65 387.612C489.498 391.044 492.006 392.76 495.174 392.76C497.638 392.76 500.146 391.22 502.698 388.14C505.338 385.06 507.186 381.628 508.242 377.844ZM607.384 353.16C605.184 354.216 602.632 355.008 599.728 355.536C596.912 356.064 593.612 356.328 589.828 356.328C589.828 351.224 589.212 347.396 587.98 344.844C586.836 342.204 585.12 340.884 582.832 340.884C579.312 340.884 576.232 344.316 573.592 351.18C571.04 358.044 569.764 365.876 569.764 374.676C569.764 380.66 570.644 385.368 572.404 388.8C574.164 392.144 576.672 393.816 579.928 393.816C582.568 393.816 585.208 392.628 587.848 390.252C590.576 387.788 593.216 384.224 595.768 379.56C597.792 380.088 599.728 381.012 601.576 382.332C603.512 383.564 605.096 385.016 606.328 386.688C604.92 391.616 601.4 395.972 595.768 399.756C590.224 403.452 583.756 405.3 576.364 405.3C568.004 405.3 561.536 402.66 556.96 397.38C552.384 392.012 550.096 384.708 550.096 375.468C550.096 363.148 553.264 352.588 559.6 343.788C566.024 334.9 574.12 330.456 583.888 330.456C591.28 330.456 597.044 332.48 601.18 336.528C605.316 340.576 607.384 346.12 607.384 353.16ZM667.767 355.668C667.767 361.3 666.975 368.956 665.391 378.636C663.895 388.228 662.003 397.556 659.715 406.62C657.163 406.62 654.523 406.444 651.795 406.092C649.067 405.828 646.559 405.388 644.271 404.772C644.623 402.924 644.843 401.56 644.931 400.68C645.107 399.8 645.283 399.008 645.459 398.304C643.611 399.36 641.543 400.152 639.255 400.68C636.967 401.208 634.547 401.472 631.995 401.472C625.219 401.472 619.763 399.756 615.627 396.324C611.579 392.804 609.555 388.14 609.555 382.332C609.555 376.26 612.019 371.728 616.947 368.736C621.963 365.656 629.399 364.116 639.255 364.116C641.103 364.116 642.731 364.16 644.139 364.248C645.635 364.248 647.175 364.292 648.759 364.38C648.759 364.028 648.759 363.72 648.759 363.456C648.759 363.104 648.759 362.752 648.759 362.4C648.759 354.392 648.099 348.672 646.779 345.24C645.459 341.808 643.347 340.092 640.443 340.092C637.539 340.092 635.075 341.676 633.051 344.844C631.027 348.012 629.971 352.016 629.883 356.856C625.571 356.768 622.007 355.932 619.191 354.348C616.375 352.676 614.351 350.388 613.119 347.484C614.527 342.38 617.959 338.068 623.415 334.548C628.871 330.94 635.163 329.136 642.291 329.136C650.651 329.136 656.987 331.38 661.299 335.868C665.611 340.356 667.767 346.956 667.767 355.668ZM629.355 383.52C629.355 386.072 630.059 388.052 631.467 389.46C632.963 390.868 635.031 391.572 637.671 391.572C639.343 391.572 640.927 391.352 642.423 390.912C643.919 390.472 645.415 389.812 646.911 388.932C647.351 385.764 647.703 382.904 647.967 380.352C648.231 377.8 648.407 375.336 648.495 372.96C642.071 372.872 637.275 373.708 634.107 375.468C630.939 377.14 629.355 379.824 629.355 383.52ZM695.189 385.236C695.189 388.052 695.233 391.352 695.321 395.136C695.497 398.832 695.673 402.132 695.849 405.036C693.913 405.652 691.361 406.136 688.193 406.488C685.113 406.928 682.209 407.148 679.481 407.148C678.513 397.996 677.589 385.94 676.709 370.98C675.917 356.02 675.521 343.392 675.521 333.096C677.105 332.304 679.217 331.688 681.857 331.248C684.585 330.72 687.357 330.456 690.173 330.456C691.405 330.456 692.681 330.544 694.001 330.72C695.321 330.808 696.729 330.984 698.225 331.248C698.049 332.744 697.829 334.548 697.565 336.66C697.389 338.772 697.213 341.192 697.037 343.92C699.677 339.696 702.625 336.528 705.881 334.416C709.137 332.304 712.701 331.248 716.573 331.248C722.469 331.248 726.825 333.404 729.641 337.716C732.545 341.94 733.997 348.364 733.997 356.988C733.997 363.764 733.425 371.552 732.281 380.352C731.225 389.064 730.081 395.84 728.849 400.68C726.209 400.592 723.261 400.372 720.005 400.02C716.837 399.668 713.449 399.14 709.841 398.436C711.337 390.252 712.481 382.64 713.273 375.6C714.065 368.56 714.461 362.488 714.461 357.384C714.461 353.512 713.977 350.74 713.009 349.068C712.041 347.396 710.501 346.56 708.389 346.56C706.101 346.56 703.857 347.836 701.657 350.388C699.457 352.852 697.565 356.284 695.981 360.684C695.717 364.732 695.497 368.912 695.321 373.224C695.233 377.448 695.189 381.452 695.189 385.236ZM798.719 333.888C795.903 345.24 792.383 356.196 788.159 366.756C783.935 377.316 778.743 388.14 772.583 399.228C771.087 399.844 769.063 400.284 766.511 400.548C764.047 400.812 760.483 400.944 755.819 400.944C753.443 388.624 750.407 376.568 746.711 364.776C743.103 352.984 738.791 341.456 733.775 330.192C736.679 328.784 739.935 327.728 743.543 327.024C747.239 326.232 751.067 325.792 755.027 325.704C757.403 332.392 759.647 340.224 761.759 349.2C763.871 358.088 765.939 368.736 767.963 381.144C771.043 373.312 773.727 364.908 776.015 355.932C778.391 346.868 780.151 338.112 781.295 329.664C784.199 329.84 787.147 330.324 790.139 331.116C793.131 331.82 795.991 332.744 798.719 333.888ZM856.981 355.668C856.981 361.3 856.189 368.956 854.605 378.636C853.109 388.228 851.217 397.556 848.929 406.62C846.377 406.62 843.737 406.444 841.009 406.092C838.281 405.828 835.773 405.388 833.485 404.772C833.837 402.924 834.057 401.56 834.145 400.68C834.321 399.8 834.497 399.008 834.673 398.304C832.825 399.36 830.757 400.152 828.469 400.68C826.181 401.208 823.761 401.472 821.209 401.472C814.433 401.472 808.977 399.756 804.841 396.324C800.793 392.804 798.769 388.14 798.769 382.332C798.769 376.26 801.233 371.728 806.161 368.736C811.177 365.656 818.613 364.116 828.469 364.116C830.317 364.116 831.945 364.16 833.353 364.248C834.849 364.248 836.389 364.292 837.973 364.38C837.973 364.028 837.973 363.72 837.973 363.456C837.973 363.104 837.973 362.752 837.973 362.4C837.973 354.392 837.313 348.672 835.993 345.24C834.673 341.808 832.561 340.092 829.657 340.092C826.753 340.092 824.289 341.676 822.265 344.844C820.241 348.012 819.185 352.016 819.097 356.856C814.785 356.768 811.221 355.932 808.405 354.348C805.589 352.676 803.565 350.388 802.333 347.484C803.741 342.38 807.173 338.068 812.629 334.548C818.085 330.94 824.377 329.136 831.505 329.136C839.865 329.136 846.201 331.38 850.513 335.868C854.825 340.356 856.981 346.956 856.981 355.668ZM818.569 383.52C818.569 386.072 819.273 388.052 820.681 389.46C822.177 390.868 824.245 391.572 826.885 391.572C828.557 391.572 830.141 391.352 831.637 390.912C833.133 390.472 834.629 389.812 836.125 388.932C836.565 385.764 836.917 382.904 837.181 380.352C837.445 377.8 837.621 375.336 837.709 372.96C831.285 372.872 826.489 373.708 823.321 375.468C820.153 377.14 818.569 379.824 818.569 383.52ZM894.963 360.288C902.179 365.04 906.975 369.176 909.351 372.696C911.727 376.216 912.915 380.132 912.915 384.444C912.915 391.132 910.275 396.676 904.995 401.076C899.803 405.476 893.379 407.676 885.723 407.676C878.683 407.676 872.831 405.432 868.167 400.944C863.591 396.368 861.303 390.736 861.303 384.048C863.063 383.256 865.263 382.64 867.903 382.2C870.543 381.672 872.831 381.452 874.767 381.54C874.679 386.204 875.603 389.944 877.539 392.76C879.475 395.488 882.159 396.852 885.591 396.852C888.143 396.852 890.123 396.148 891.531 394.74C893.027 393.244 893.775 391.176 893.775 388.536C893.775 386.248 892.983 384.092 891.399 382.068C889.903 379.956 886.515 377.14 881.235 373.62C874.195 368.868 869.531 364.776 867.243 361.344C865.043 357.824 863.943 353.908 863.943 349.596C863.943 343.172 866.187 337.936 870.675 333.888C875.251 329.752 881.191 327.684 888.495 327.684C895.711 327.684 901.475 329.444 905.787 332.964C910.187 336.396 913.047 341.5 914.367 348.276C912.431 349.508 910.187 350.476 907.635 351.18C905.171 351.884 902.047 352.368 898.263 352.632C897.647 348.056 896.591 344.712 895.095 342.6C893.599 340.488 891.575 339.432 889.023 339.432C886.999 339.432 885.415 340.048 884.271 341.28C883.215 342.512 882.687 344.228 882.687 346.428C882.687 348.54 883.435 350.564 884.931 352.5C886.427 354.348 889.771 356.944 894.963 360.288Z" fill="black"/>
</g>
<defs>
<clipPath id="clip0_4368_321039">
<rect width="1200" height="720" fill="white"/>
</clipPath>
</defs>
</svg>
