<svg width="109" height="153" viewBox="0 0 109 153" fill="none" xmlns="http://www.w3.org/2000/svg">
<g filter="url(#filter0_d_3_19)">
<rect x="5" y="54" width="99" height="80" rx="10" fill="white" stroke="black" stroke-width="2"/>
<path d="M50.76 119.664C47.6027 119.664 44.6587 119.195 41.928 118.256C39.1973 117.317 36.9787 115.995 35.272 114.288C33.5653 112.581 32.712 110.533 32.712 108.144C32.712 106.864 33.0107 105.669 33.608 104.56C34.2907 103.365 35.3573 102.768 36.808 102.768C37.576 102.768 38.3867 102.981 39.24 103.408C40.776 104.261 42.7387 105.072 45.128 105.84C47.5173 106.523 50.0347 106.864 52.68 106.864C55.6667 106.864 58.312 106.437 60.616 105.584C62.92 104.731 64.072 103.536 64.072 102C64.072 100.805 63.176 99.952 61.384 99.44C59.6773 98.928 56.776 98.3733 52.68 97.776C49.864 97.264 47.1333 96.6667 44.488 95.984C41.8427 95.3013 39.6667 94.1493 37.96 92.528C36.2533 90.8213 35.4 88.3467 35.4 85.104C35.4 81.9467 36.2533 78.9173 37.96 76.016C39.752 73.0293 42.3973 70.5547 45.896 68.592C49.3947 66.6293 53.6613 65.648 58.696 65.648C61.3413 65.648 63.9013 65.9467 66.376 66.544C68.8507 67.1413 70.8987 68.0373 72.52 69.232C74.1413 70.4267 74.952 71.92 74.952 73.712C74.952 75.248 74.3973 76.656 73.288 77.936C72.264 79.216 71.0267 80.2827 69.576 81.136C68.2107 81.904 67.0587 82.288 66.12 82.288C65.4373 82.288 64.6267 81.8187 63.688 80.88C62.2373 79.6853 60.616 78.8747 58.824 78.448C57.1173 77.936 55.4107 77.68 53.704 77.68C51.144 77.68 49.0533 78.064 47.432 78.832C45.896 79.6 45.128 80.5813 45.128 81.776C45.128 82.8853 45.768 83.7813 47.048 84.464C48.4133 85.1467 50.0773 85.6587 52.04 86C54.0027 86.256 55.88 86.512 57.672 86.768C62.6213 87.4507 66.5467 88.6453 69.448 90.352C72.3493 91.9733 73.8 94.8747 73.8 99.056C73.8 102.299 72.8613 105.541 70.984 108.784C69.192 111.941 66.5467 114.544 63.048 116.592C59.6347 118.64 55.5387 119.664 50.76 119.664Z" fill="black"/>
</g>
<defs>
<filter id="filter0_d_3_19" x="0" y="53" width="109" height="90" filterUnits="userSpaceOnUse" color-interpolation-filters="sRGB">
<feFlood flood-opacity="0" result="BackgroundImageFix"/>
<feColorMatrix in="SourceAlpha" type="matrix" values="0 0 0 0 0 0 0 0 0 0 0 0 0 0 0 0 0 0 127 0" result="hardAlpha"/>
<feOffset dy="4"/>
<feGaussianBlur stdDeviation="2"/>
<feComposite in2="hardAlpha" operator="out"/>
<feColorMatrix type="matrix" values="0 0 0 0 0 0 0 0 0 0 0 0 0 0 0 0 0 0 0.25 0"/>
<feBlend mode="normal" in2="BackgroundImageFix" result="effect1_dropShadow_3_19"/>
<feBlend mode="normal" in="SourceGraphic" in2="effect1_dropShadow_3_19" result="shape"/>
</filter>
</defs>
</svg>
