<svg width="1280" height="832" viewBox="0 0 1280 832" fill="none" xmlns="http://www.w3.org/2000/svg">
<g clip-path="url(#clip0_843_47)">
<rect width="1280" height="832" fill="#2B7FFF"/>
<path d="M-302 180.313C-210.125 180.313 -118.25 180.313 -26.3752 180.313C-19.5589 180.313 -18.933 179.941 -19.0642 186.893C-19.1843 193.254 -20.7092 199.424 -20.7092 205.81C-20.7092 208.302 -19.353 206.112 -18.3331 204.896C-10.753 195.858 -2.44587 187.869 6.70708 180.404C28.4923 162.638 52.9383 147.03 79.9999 138.731C88.0788 136.254 102.159 133.324 110.706 136.173C118.552 138.788 114.179 174.936 114.179 183.054C114.179 185.489 112.576 196.467 114.544 198.042C116.108 199.293 151.566 174.024 154.207 172.453C174.909 160.144 247.782 117.922 251.534 166.696C252.322 176.939 252.357 187.14 252.357 197.402C252.357 207.73 293.175 183.148 294.486 182.506C324.204 167.96 351.274 156.872 384.412 155.729C390.933 155.505 397.48 155.211 403.694 157.283" stroke="#699BF7" stroke-width="48" stroke-linecap="round" stroke-linejoin="round"/>
<path d="M-302 180.313C-272.592 180.313 -20.5892 174.042 -20.7092 180.404C-20.8292 186.766 -20.7092 199.424 -20.7092 205.81C-20.7092 208.302 -19.353 206.112 -18.3331 204.896C-10.753 195.858 -2.44587 187.869 6.70708 180.404C28.4923 162.638 52.9383 147.03 79.9999 138.731C88.0788 136.254 102.159 133.324 110.706 136.173C118.552 138.788 114.179 174.936 114.179 183.054C114.179 185.489 112.576 196.467 114.544 198.042C116.108 199.293 151.566 174.024 154.207 172.453C174.909 160.144 247.782 117.922 251.534 166.696C252.322 176.939 252.357 187.14 252.357 197.402C252.357 207.73 293.175 183.148 294.486 182.506C324.204 167.96 351.274 156.872 384.412 155.729C390.933 155.505 397.48 155.211 403.694 157.283" stroke="black" stroke-width="4" stroke-linecap="round" stroke-linejoin="round"/>
<circle cx="403.5" cy="156.75" r="8" fill="white" stroke="black" stroke-width="4"/>
<circle cx="255" cy="196.5" r="8" fill="white" stroke="black" stroke-width="4"/>
<circle cx="214.5" cy="146" r="8" fill="white" stroke="black" stroke-width="4"/>
<circle cx="113.25" cy="200.25" r="8" fill="white" stroke="black" stroke-width="4"/>
<circle cx="107.25" cy="135" r="8" fill="white" stroke="black" stroke-width="4"/>
<rect x="727" y="103" width="145" height="47.5" fill="#F24E1E"/>
<rect x="727" y="103" width="145" height="47.5" stroke="black" stroke-width="4"/>
<path d="M752.466 138V117.636H754.932V127.739H755.17L764.318 117.636H767.54L758.989 126.824L767.54 138H764.557L757.477 128.534L754.932 131.398V138H752.466ZM770.413 138V122.727H772.68V125.034H772.839C773.118 124.278 773.622 123.665 774.351 123.195C775.08 122.724 775.902 122.489 776.817 122.489C776.989 122.489 777.205 122.492 777.463 122.499C777.722 122.505 777.917 122.515 778.05 122.528V124.915C777.97 124.895 777.788 124.865 777.503 124.825C777.224 124.779 776.929 124.756 776.618 124.756C775.875 124.756 775.213 124.911 774.629 125.223C774.053 125.528 773.595 125.952 773.257 126.496C772.926 127.033 772.76 127.646 772.76 128.335V138H770.413ZM780.831 138V122.727H783.178V138H780.831ZM782.025 120.182C781.567 120.182 781.173 120.026 780.841 119.714C780.516 119.403 780.354 119.028 780.354 118.591C780.354 118.153 780.516 117.779 780.841 117.467C781.173 117.156 781.567 117 782.025 117C782.482 117 782.873 117.156 783.198 117.467C783.529 117.779 783.695 118.153 783.695 118.591C783.695 119.028 783.529 119.403 783.198 119.714C782.873 120.026 782.482 120.182 782.025 120.182ZM798.294 126.148L796.186 126.744C796.054 126.393 795.858 126.052 795.599 125.72C795.348 125.382 795.003 125.104 794.565 124.885C794.128 124.666 793.568 124.557 792.885 124.557C791.95 124.557 791.171 124.772 790.548 125.203C789.932 125.627 789.624 126.168 789.624 126.824C789.624 127.407 789.836 127.868 790.26 128.206C790.684 128.544 791.347 128.826 792.249 129.051L794.516 129.608C795.881 129.939 796.899 130.446 797.568 131.129C798.238 131.805 798.572 132.677 798.572 133.744C798.572 134.619 798.321 135.402 797.817 136.091C797.32 136.78 796.624 137.324 795.729 137.722C794.834 138.119 793.793 138.318 792.607 138.318C791.049 138.318 789.759 137.98 788.739 137.304C787.718 136.628 787.071 135.64 786.8 134.341L789.027 133.784C789.239 134.606 789.64 135.223 790.23 135.634C790.827 136.045 791.606 136.25 792.567 136.25C793.661 136.25 794.529 136.018 795.172 135.554C795.821 135.083 796.146 134.52 796.146 133.864C796.146 133.333 795.961 132.889 795.589 132.531C795.218 132.167 794.648 131.895 793.879 131.716L791.334 131.119C789.935 130.788 788.908 130.274 788.251 129.578C787.602 128.875 787.277 127.997 787.277 126.943C787.277 126.081 787.519 125.319 788.003 124.656C788.493 123.993 789.16 123.473 790.001 123.095C790.85 122.717 791.811 122.528 792.885 122.528C794.396 122.528 795.583 122.86 796.445 123.523C797.313 124.186 797.929 125.061 798.294 126.148ZM804.451 128.812V138H802.105V117.636H804.451V125.114H804.65C805.008 124.325 805.545 123.698 806.261 123.234C806.984 122.764 807.945 122.528 809.145 122.528C810.185 122.528 811.097 122.737 811.879 123.155C812.661 123.566 813.268 124.199 813.699 125.054C814.136 125.902 814.355 126.983 814.355 128.295V138H812.008V128.455C812.008 127.241 811.693 126.304 811.064 125.641C810.44 124.971 809.575 124.636 808.468 124.636C807.699 124.636 807.01 124.799 806.4 125.124C805.797 125.448 805.32 125.922 804.968 126.545C804.624 127.169 804.451 127.924 804.451 128.812ZM820.994 128.812V138H818.648V122.727H820.915V125.114H821.114C821.472 124.338 822.015 123.715 822.744 123.244C823.473 122.767 824.415 122.528 825.568 122.528C826.602 122.528 827.507 122.741 828.283 123.165C829.058 123.582 829.661 124.219 830.092 125.074C830.523 125.922 830.739 126.996 830.739 128.295V138H828.392V128.455C828.392 127.255 828.08 126.32 827.457 125.651C826.834 124.974 825.979 124.636 824.892 124.636C824.143 124.636 823.473 124.799 822.884 125.124C822.3 125.448 821.839 125.922 821.501 126.545C821.163 127.169 820.994 127.924 820.994 128.812ZM839.521 138.358C838.553 138.358 837.675 138.176 836.886 137.811C836.097 137.44 835.471 136.906 835.007 136.21C834.543 135.508 834.311 134.659 834.311 133.665C834.311 132.79 834.483 132.08 834.828 131.537C835.172 130.987 835.633 130.556 836.21 130.244C836.787 129.933 837.423 129.701 838.119 129.548C838.822 129.389 839.528 129.263 840.237 129.17C841.165 129.051 841.917 128.962 842.494 128.902C843.077 128.836 843.502 128.726 843.767 128.574C844.038 128.421 844.174 128.156 844.174 127.778V127.699C844.174 126.718 843.906 125.955 843.369 125.412C842.839 124.868 842.033 124.597 840.953 124.597C839.833 124.597 838.954 124.842 838.318 125.332C837.681 125.823 837.234 126.347 836.975 126.903L834.748 126.108C835.146 125.18 835.676 124.457 836.339 123.94C837.009 123.417 837.738 123.052 838.527 122.847C839.322 122.634 840.104 122.528 840.873 122.528C841.364 122.528 841.927 122.588 842.564 122.707C843.207 122.82 843.826 123.055 844.423 123.413C845.026 123.771 845.527 124.312 845.924 125.034C846.322 125.757 846.521 126.724 846.521 127.938V138H844.174V135.932H844.055C843.896 136.263 843.631 136.618 843.26 136.996C842.888 137.374 842.395 137.695 841.778 137.96C841.162 138.225 840.409 138.358 839.521 138.358ZM839.879 136.25C840.807 136.25 841.589 136.068 842.225 135.703C842.868 135.339 843.352 134.868 843.677 134.291C844.009 133.714 844.174 133.108 844.174 132.472V130.324C844.075 130.443 843.856 130.553 843.518 130.652C843.187 130.745 842.802 130.828 842.365 130.901C841.934 130.967 841.513 131.027 841.102 131.08C840.698 131.126 840.369 131.166 840.118 131.199C839.508 131.278 838.938 131.408 838.407 131.587C837.884 131.759 837.459 132.021 837.135 132.372C836.816 132.717 836.657 133.187 836.657 133.784C836.657 134.599 836.959 135.216 837.562 135.634C838.172 136.045 838.944 136.25 839.879 136.25Z" fill="white"/>
<path fill-rule="evenodd" clip-rule="evenodd" d="M734.422 182.239L696.75 204.5L705.36 159.729L714.375 179.109L734.422 182.239Z" fill="#F24E1E" stroke="black" stroke-width="4" stroke-linecap="square"/>
<path d="M642 840.161C668.628 758.229 767.574 709.801 850.285 726.914C866.23 730.213 886.848 740.593 900.383 749.963C903.882 752.385 903.516 746.808 903.857 744.596C905.036 736.932 908.303 729.95 913.329 723.967C932.679 700.931 980.739 716.263 1003 724.178C1038.24 736.706 1071.14 754.763 1105.72 768.908C1112.22 771.568 1109.73 763.723 1110.04 759.33C1111.4 739.552 1135.2 725.201 1152.03 719.336C1171.54 712.536 1193.15 707.337 1213.92 707.549C1221.02 707.621 1227.14 709.69 1233.7 712.179C1236.31 713.169 1242.33 717.338 1245.18 716.705C1247.68 716.149 1241.19 702.877 1240.65 701.128C1237.64 691.352 1240.81 686.55 1248.23 679.132C1266.89 660.472 1286.07 660.187 1311.48 660.187C1327.78 660.187 1345.06 658.4 1360 665.87" stroke="#FF8577" stroke-width="48" stroke-linecap="round" stroke-linejoin="round"/>
<path d="M642 840.161C668.628 758.229 767.574 709.801 850.285 726.914C866.23 730.213 886.848 740.593 900.383 749.963C903.882 752.385 903.516 746.808 903.857 744.596C905.036 736.932 908.303 729.95 913.329 723.967C932.679 700.931 980.739 716.263 1003 724.178C1038.24 736.706 1071.14 754.763 1105.72 768.908C1112.22 771.568 1109.73 763.723 1110.04 759.33C1111.4 739.552 1135.2 725.201 1152.03 719.336C1171.54 712.536 1193.15 707.337 1213.92 707.549C1221.02 707.621 1227.14 709.69 1233.7 712.179C1236.31 713.169 1242.33 717.338 1245.18 716.705C1247.68 716.149 1241.19 702.877 1240.65 701.128C1237.64 691.352 1240.81 686.55 1248.23 679.132C1266.89 660.472 1286.07 660.187 1311.48 660.187C1327.78 660.187 1345.06 658.4 1360 665.87" stroke="black" stroke-width="4" stroke-linecap="round" stroke-linejoin="round"/>
<circle cx="761" cy="732.5" r="8" fill="white" stroke="black" stroke-width="4"/>
<circle cx="901.25" cy="750" r="8" fill="white" stroke="black" stroke-width="4"/>
<circle cx="1000.25" cy="723.75" r="8" fill="white" stroke="black" stroke-width="4"/>
<rect x="192" y="630.25" width="123" height="47.5" fill="#5551FF"/>
<rect x="192" y="630.25" width="123" height="47.5" stroke="black" stroke-width="4"/>
<path d="M218.301 665.25H215.716L223.193 644.887H225.739L233.216 665.25H230.631L224.545 648.108H224.386L218.301 665.25ZM219.256 657.296H229.676V659.483H219.256V657.296ZM241.837 665.568C240.564 665.568 239.44 665.247 238.466 664.604C237.491 663.954 236.729 663.039 236.179 661.86C235.629 660.673 235.354 659.271 235.354 657.654C235.354 656.049 235.629 654.657 236.179 653.477C236.729 652.298 237.495 651.386 238.476 650.743C239.457 650.1 240.59 649.779 241.876 649.779C242.871 649.779 243.656 649.944 244.233 650.276C244.816 650.601 245.26 650.972 245.565 651.389C245.877 651.8 246.119 652.138 246.291 652.404H246.49V644.887H248.837V665.25H246.57V662.904H246.291C246.119 663.182 245.874 663.533 245.555 663.958C245.237 664.375 244.783 664.75 244.193 665.081C243.603 665.406 242.818 665.568 241.837 665.568ZM242.155 663.46C243.096 663.46 243.892 663.215 244.541 662.725C245.191 662.227 245.685 661.541 246.023 660.666C246.361 659.785 246.53 658.767 246.53 657.614C246.53 656.474 246.364 655.476 246.033 654.621C245.701 653.759 245.211 653.09 244.561 652.612C243.911 652.128 243.109 651.887 242.155 651.887C241.161 651.887 240.332 652.142 239.669 652.652C239.013 653.156 238.519 653.842 238.188 654.71C237.863 655.572 237.7 656.54 237.7 657.614C237.7 658.701 237.866 659.689 238.197 660.577C238.536 661.459 239.033 662.161 239.689 662.685C240.352 663.202 241.174 663.46 242.155 663.46ZM257.955 665.608C256.987 665.608 256.108 665.426 255.32 665.061C254.531 664.69 253.904 664.156 253.44 663.46C252.976 662.758 252.744 661.909 252.744 660.915C252.744 660.04 252.917 659.331 253.261 658.787C253.606 658.237 254.067 657.806 254.643 657.495C255.22 657.183 255.857 656.951 256.553 656.798C257.255 656.639 257.961 656.513 258.67 656.421C259.598 656.301 260.351 656.212 260.928 656.152C261.511 656.086 261.935 655.977 262.2 655.824C262.472 655.672 262.608 655.406 262.608 655.029V654.949C262.608 653.968 262.339 653.206 261.803 652.662C261.272 652.119 260.467 651.847 259.386 651.847C258.266 651.847 257.388 652.092 256.751 652.583C256.115 653.073 255.668 653.597 255.409 654.154L253.182 653.358C253.58 652.43 254.11 651.708 254.773 651.191C255.442 650.667 256.171 650.302 256.96 650.097C257.756 649.885 258.538 649.779 259.307 649.779C259.797 649.779 260.361 649.838 260.997 649.958C261.64 650.07 262.26 650.306 262.857 650.664C263.46 651.021 263.96 651.562 264.358 652.284C264.756 653.007 264.955 653.975 264.955 655.188V665.25H262.608V663.182H262.489C262.33 663.513 262.064 663.868 261.693 664.246C261.322 664.624 260.828 664.945 260.212 665.21C259.595 665.476 258.843 665.608 257.955 665.608ZM258.312 663.5C259.241 663.5 260.023 663.318 260.659 662.953C261.302 662.589 261.786 662.118 262.111 661.541C262.442 660.965 262.608 660.358 262.608 659.722V657.574C262.509 657.693 262.29 657.803 261.952 657.902C261.62 657.995 261.236 658.078 260.798 658.151C260.367 658.217 259.946 658.277 259.536 658.33C259.131 658.376 258.803 658.416 258.551 658.449C257.941 658.529 257.371 658.658 256.841 658.837C256.317 659.009 255.893 659.271 255.568 659.622C255.25 659.967 255.091 660.438 255.091 661.034C255.091 661.85 255.393 662.466 255.996 662.884C256.606 663.295 257.378 663.5 258.312 663.5ZM269.238 665.25V649.977H271.505V652.364H271.703C272.022 651.548 272.535 650.915 273.245 650.465C273.954 650.007 274.806 649.779 275.8 649.779C276.808 649.779 277.646 650.007 278.316 650.465C278.992 650.915 279.519 651.548 279.897 652.364H280.056C280.447 651.575 281.033 650.949 281.816 650.485C282.598 650.014 283.536 649.779 284.63 649.779C285.995 649.779 287.112 650.206 287.98 651.061C288.849 651.91 289.283 653.232 289.283 655.029V665.25H286.936V655.029C286.936 653.902 286.628 653.096 286.012 652.612C285.395 652.128 284.669 651.887 283.834 651.887C282.76 651.887 281.928 652.211 281.338 652.861C280.748 653.504 280.453 654.319 280.453 655.307V665.25H278.067V654.79C278.067 653.922 277.785 653.222 277.222 652.692C276.658 652.155 275.933 651.887 275.044 651.887C274.435 651.887 273.864 652.049 273.334 652.374C272.81 652.699 272.386 653.149 272.061 653.726C271.743 654.296 271.584 654.956 271.584 655.705V665.25H269.238Z" fill="white"/>
<path fill-rule="evenodd" clip-rule="evenodd" d="M306.578 608.011L344.25 585.75L335.64 630.521L326.625 611.141L306.578 608.011Z" fill="#5551FF" stroke="black" stroke-width="4" stroke-linecap="square"/>
<rect x="1003" y="467" width="132.25" height="58.5" fill="#A259FF"/>
<rect x="1003" y="467" width="132.25" height="58.5" stroke="black" stroke-width="4"/>
<path fill-rule="evenodd" clip-rule="evenodd" d="M1007.92 444.761L970.25 422.5L978.86 467.271L987.875 447.891L1007.92 444.761Z" fill="#A259FF" stroke="black" stroke-width="4" stroke-linecap="square"/>
<path d="M-286.586 1082.24C-442.007 926.822 -442.007 674.835 -286.586 519.414C-131.165 363.994 120.822 363.994 276.243 519.414" stroke="#FFC700" stroke-width="48" stroke-linecap="round"/>
<path d="M-286.586 1082.24C-442.007 926.822 -442.007 674.835 -286.586 519.414C-131.165 363.994 120.822 363.994 276.243 519.414" stroke="black" stroke-width="4"/>
<circle cx="276" cy="519" r="8" fill="white" stroke="black" stroke-width="4"/>
<path fill-rule="evenodd" clip-rule="evenodd" d="M327.074 513.406C339.988 510.068 349.529 498.316 349.529 484.331C349.529 481.152 349.036 478.089 348.123 475.214L362.139 461.167L342.881 441.867L328.966 455.812C326.011 454.835 322.852 454.306 319.571 454.306C305.087 454.306 293.004 464.607 290.217 478.297L276 528L327.074 513.406Z" fill="white"/>
<path fill-rule="evenodd" clip-rule="evenodd" d="M278.813 528.016L279.96 526.868L280.531 526.705L327.074 513.406C339.988 510.068 349.529 498.316 349.529 484.331C349.529 481.152 349.036 478.089 348.123 475.214L362.139 461.167L345.706 444.699L342.881 441.867L340.056 444.699L328.966 455.812C326.011 454.835 322.852 454.306 319.571 454.306C305.087 454.306 293.004 464.607 290.217 478.297L277.296 523.47L277.133 524.038L275.984 525.188L276.622 525.825L276 528L278.175 527.378L278.813 528.016ZM310.273 490.898L282.961 518.211L294.063 479.397L294.106 479.247L294.137 479.095C296.553 467.225 307.032 458.306 319.571 458.306C322.42 458.306 325.155 458.765 327.71 459.61L330.054 460.385L331.798 458.638L342.881 447.53L356.489 461.167L345.292 472.389L343.575 474.109L344.311 476.425C345.101 478.913 345.529 481.568 345.529 484.331C345.529 496.453 337.26 506.642 326.073 509.533L326.024 509.546L325.975 509.56L285.785 521.044L313.102 493.727C314.379 494.505 315.879 494.953 317.484 494.953C322.144 494.953 325.922 491.176 325.922 486.516C325.922 481.856 322.144 478.078 317.484 478.078C312.825 478.078 309.047 481.856 309.047 486.516C309.047 488.121 309.495 489.621 310.273 490.898Z" fill="black"/>
<path d="M395.5 222.5H696.762L758.637 543.26L395.5 498.673V222.5Z" fill="#FF8577" stroke="black" stroke-width="3"/>
<circle cx="753" cy="412" r="161.5" fill="#A259FF" stroke="black" stroke-width="3"/>
<line x1="500.693" y1="633.33" x2="452.693" y2="658.33" stroke="white" stroke-width="3"/>
<line x1="488.67" y1="668.694" x2="464.67" y2="622.694" stroke="white" stroke-width="3"/>
<line x1="514.693" y1="157.33" x2="466.693" y2="182.33" stroke="white" stroke-width="3"/>
<line x1="502.67" y1="192.694" x2="478.67" y2="146.694" stroke="white" stroke-width="3"/>
<line x1="817.693" y1="348.33" x2="769.693" y2="373.33" stroke="white" stroke-width="3"/>
<line x1="805.67" y1="383.694" x2="781.67" y2="337.694" stroke="white" stroke-width="3"/>
<path d="M663.5 608L668.776 623.893H685.85L672.037 633.715L677.313 649.607L663.5 639.785L649.687 649.607L654.963 633.715L641.15 623.893H658.224L663.5 608Z" fill="#0FA958"/>
<path d="M567.5 101L572.776 116.893H589.85L576.037 126.715L581.313 142.607L567.5 132.785L553.687 142.607L558.963 126.715L545.15 116.893H562.224L567.5 101Z" fill="#0FA958"/>
<path d="M1136.5 143L1141.78 158.893H1158.85L1145.04 168.715L1150.31 184.607L1136.5 174.785L1122.69 184.607L1127.96 168.715L1114.15 158.893H1131.22L1136.5 143Z" fill="#0FA958"/>
<path d="M1046.26 485.636H1048.73V500.193C1048.73 501.492 1048.49 502.596 1048.01 503.504C1047.53 504.412 1046.86 505.102 1045.99 505.572C1045.12 506.043 1044.1 506.278 1042.92 506.278C1041.81 506.278 1040.82 506.076 1039.95 505.672C1039.08 505.261 1038.4 504.678 1037.9 503.922C1037.4 503.166 1037.15 502.268 1037.15 501.227H1039.58C1039.58 501.804 1039.72 502.308 1040.01 502.739C1040.3 503.163 1040.7 503.494 1041.2 503.733C1041.7 503.972 1042.28 504.091 1042.92 504.091C1043.63 504.091 1044.23 503.942 1044.73 503.643C1045.23 503.345 1045.61 502.908 1045.86 502.331C1046.13 501.748 1046.26 501.035 1046.26 500.193V485.636ZM1059.56 506.318C1058.18 506.318 1056.97 505.99 1055.93 505.334C1054.89 504.678 1054.08 503.759 1053.5 502.58C1052.92 501.4 1052.63 500.021 1052.63 498.443C1052.63 496.852 1052.92 495.464 1053.5 494.277C1054.08 493.09 1054.89 492.169 1055.93 491.513C1056.97 490.857 1058.18 490.528 1059.56 490.528C1060.93 490.528 1062.14 490.857 1063.17 491.513C1064.22 492.169 1065.02 493.09 1065.6 494.277C1066.18 495.464 1066.48 496.852 1066.48 498.443C1066.48 500.021 1066.18 501.4 1065.6 502.58C1065.02 503.759 1064.22 504.678 1063.17 505.334C1062.14 505.99 1060.93 506.318 1059.56 506.318ZM1059.56 504.21C1060.6 504.21 1061.46 503.942 1062.14 503.405C1062.82 502.868 1063.32 502.162 1063.64 501.287C1063.97 500.412 1064.13 499.464 1064.13 498.443C1064.13 497.422 1063.97 496.471 1063.64 495.589C1063.32 494.708 1062.82 493.995 1062.14 493.452C1061.46 492.908 1060.6 492.636 1059.56 492.636C1058.51 492.636 1057.65 492.908 1056.97 493.452C1056.29 493.995 1055.79 494.708 1055.47 495.589C1055.14 496.471 1054.98 497.422 1054.98 498.443C1054.98 499.464 1055.14 500.412 1055.47 501.287C1055.79 502.162 1056.29 502.868 1056.97 503.405C1057.65 503.942 1058.51 504.21 1059.56 504.21ZM1072.4 496.812V506H1070.06V485.636H1072.4V493.114H1072.6C1072.96 492.325 1073.5 491.698 1074.21 491.234C1074.94 490.764 1075.9 490.528 1077.1 490.528C1078.14 490.528 1079.05 490.737 1079.83 491.155C1080.61 491.566 1081.22 492.199 1081.65 493.054C1082.09 493.902 1082.31 494.983 1082.31 496.295V506H1079.96V496.455C1079.96 495.241 1079.65 494.304 1079.02 493.641C1078.39 492.971 1077.53 492.636 1076.42 492.636C1075.65 492.636 1074.96 492.799 1074.35 493.124C1073.75 493.448 1073.27 493.922 1072.92 494.545C1072.58 495.169 1072.4 495.924 1072.4 496.812ZM1088.95 496.812V506H1086.6V490.727H1088.87V493.114H1089.07C1089.42 492.338 1089.97 491.715 1090.7 491.244C1091.43 490.767 1092.37 490.528 1093.52 490.528C1094.56 490.528 1095.46 490.741 1096.24 491.165C1097.01 491.582 1097.61 492.219 1098.05 493.074C1098.48 493.922 1098.69 494.996 1098.69 496.295V506H1096.35V496.455C1096.35 495.255 1096.03 494.32 1095.41 493.651C1094.79 492.974 1093.93 492.636 1092.85 492.636C1092.1 492.636 1091.43 492.799 1090.84 493.124C1090.25 493.448 1089.79 493.922 1089.45 494.545C1089.12 495.169 1088.95 495.924 1088.95 496.812Z" fill="white"/>
</g>
<defs>
<clipPath id="clip0_843_47">
<rect width="1280" height="832" fill="white"/>
</clipPath>
</defs>
</svg>
