<svg width="205" height="52" viewBox="0 0 205 52" fill="none" xmlns="http://www.w3.org/2000/svg">
<path d="M21.12 51.896C17.024 51.896 13.1413 51.5547 9.472 50.872C5.84533 50.1467 3.05067 49.336 1.088 48.44V35.768H15.168C15.168 37.0907 15.4667 38.0507 16.064 38.648C16.6613 39.2453 17.7493 39.544 19.328 39.544C20.6507 39.544 21.5893 39.352 22.144 38.968C22.7413 38.5413 23.04 37.9227 23.04 37.112C23.04 36.4293 22.7627 35.8533 22.208 35.384C21.6533 34.872 20.6933 34.36 19.328 33.848L13.824 31.928C9.088 30.136 5.67467 28.024 3.584 25.592C1.536 23.16 0.512 19.8747 0.512 15.736C0.512 10.7013 2.15467 6.88266 5.44 4.28C8.768 1.63466 14.2933 0.311996 22.016 0.311996C25.728 0.311996 29.2053 0.695997 32.448 1.464C35.7333 2.18933 38.3787 3.17066 40.384 4.408V15.864H27.584C27.584 13.7307 26.2613 12.664 23.616 12.664C22.336 12.664 21.4187 12.8347 20.864 13.176C20.352 13.4747 20.096 14.0293 20.096 14.84C20.096 15.5653 20.3947 16.1413 20.992 16.568C21.632 16.9947 22.656 17.4427 24.064 17.912L29.632 19.832C34.1547 21.368 37.44 23.3733 39.488 25.848C41.5787 28.28 42.624 31.48 42.624 35.448C42.624 40.8667 40.7893 44.9627 37.12 47.736C33.4933 50.5093 28.16 51.896 21.12 51.896ZM44.277 51.064V40.504H47.093V11.704H44.277V1.208H61.813V40.504H64.629V51.064H44.277ZM103.964 40.504V51H87.068V46.648C86.1293 48.0133 84.8067 49.2293 83.1 50.296C81.436 51.3627 79.388 51.896 76.956 51.896C73.756 51.896 71.2387 51.0427 69.404 49.336C67.5693 47.6293 66.652 45.2187 66.652 42.104C66.652 34.04 73.5 29.9013 87.196 29.688C87.068 28.2373 86.5133 27.256 85.532 26.744C84.5507 26.1893 82.8867 25.912 80.54 25.912C78.62 25.912 76.5507 26.1253 74.332 26.552C72.156 26.936 70.1507 27.4693 68.316 28.152V16.376C70.5773 15.8213 73.0307 15.3733 75.676 15.032C78.3213 14.6907 80.9027 14.52 83.42 14.52C89.7773 14.52 94.3213 15.672 97.052 17.976C99.7827 20.28 101.148 23.8427 101.148 28.664V40.504H103.964ZM87.068 36.024C85.148 36.024 83.6547 36.28 82.588 36.792C81.564 37.304 81.052 38.1573 81.052 39.352C81.052 40.0773 81.2653 40.6747 81.692 41.144C82.1613 41.5707 82.8013 41.784 83.612 41.784C84.7213 41.784 85.5747 41.3147 86.172 40.376C86.7693 39.4373 87.068 38.1147 87.068 36.408V36.024ZM121.835 51.896C117.312 51.896 113.899 50.808 111.595 48.632C109.334 46.4133 108.203 42.7013 108.203 37.496V25.912H105.387V15.416C107.008 15.416 108.224 15.0107 109.035 14.2C109.846 13.3467 110.251 12.1947 110.251 10.744V7.864H123.819V15.416H132.459V25.912H123.819V36.408C123.819 37.816 124.118 38.8613 124.715 39.544C125.355 40.184 126.294 40.504 127.531 40.504C129.152 40.504 130.923 40.312 132.843 39.928V49.976C131.648 50.4453 130.027 50.872 127.979 51.256C125.974 51.6827 123.926 51.896 121.835 51.896ZM153.974 51.896C147.915 51.896 143.179 50.3173 139.766 47.16C136.353 43.96 134.646 39.3093 134.646 33.208C134.646 27.1067 136.353 22.4773 139.766 19.32C143.179 16.12 147.915 14.52 153.974 14.52C159.99 14.52 164.321 16.0987 166.966 19.256C169.654 22.3707 170.998 26.2533 170.998 30.904V35.512H150.262V35.896C150.262 37.4747 150.731 38.648 151.67 39.416C152.609 40.1413 154.166 40.504 156.342 40.504C158.945 40.504 161.419 40.312 163.766 39.928C166.113 39.544 168.161 39.0533 169.91 38.456V48.696C168.417 49.5067 166.219 50.2533 163.318 50.936C160.459 51.576 157.345 51.896 153.974 51.896ZM157.686 28.472V27.704C157.686 26.2533 157.366 25.208 156.726 24.568C156.129 23.928 155.211 23.608 153.974 23.608C152.737 23.608 151.798 23.9493 151.158 24.632C150.561 25.272 150.262 26.296 150.262 27.704V28.472H157.686ZM188.454 51.896C183.078 51.896 177.894 51.0427 172.902 49.336V39.864H183.27V40.504C183.27 42.552 184.571 43.576 187.174 43.576C189.478 43.576 190.63 42.7867 190.63 41.208C190.63 40.3547 190.289 39.7147 189.606 39.288C188.966 38.8613 187.814 38.4987 186.15 38.2L182.95 37.624C176.251 36.4293 172.902 32.632 172.902 26.232C172.902 22.52 174.31 19.64 177.126 17.592C179.942 15.544 183.739 14.52 188.518 14.52C193.851 14.52 198.353 15.416 202.022 17.208V26.104H192.294V25.464C192.294 24.6107 191.995 23.9707 191.398 23.544C190.843 23.0747 190.011 22.84 188.902 22.84C186.769 22.84 185.702 23.5227 185.702 24.888C185.702 25.6133 186.001 26.168 186.598 26.552C187.195 26.936 188.283 27.2987 189.862 27.64L193.51 28.344C197.307 29.0693 200.017 30.4133 201.638 32.376C203.259 34.3387 204.07 36.856 204.07 39.928C204.07 43.8107 202.705 46.776 199.974 48.824C197.286 50.872 193.446 51.896 188.454 51.896Z" fill="black"/>
</svg>
